<svg xmlns="http://www.w3.org/2000/svg" width="24" height="24" fill="none" viewBox="0 0 24 24">
    <path fill="#939290" fill-rule="evenodd" d="M12 12c2.761 0 5-2.239 5-5s-2.239-5-5-5-5 2.239-5 5 2.239 5 5 5zm-4 2c-2.761 0-5 2.239-5 5v2c0 .552.448 1 1 1h16c.552 0 1-.448 1-1v-2c0-2.761-2.239-5-5-5H8z" clip-rule="evenodd"/>
    <mask id="2hpd348r6a" width="18" height="20" x="3" y="2" maskUnits="userSpaceOnUse">
        <path fill="#fff" fill-rule="evenodd" d="M12 12c2.761 0 5-2.239 5-5s-2.239-5-5-5-5 2.239-5 5 2.239 5 5 5zm-4 2c-2.761 0-5 2.239-5 5v2c0 .552.448 1 1 1h16c.552 0 1-.448 1-1v-2c0-2.761-2.239-5-5-5H8z" clip-rule="evenodd"/>
    </mask>
</svg>
