<svg width="24" height="24" viewBox="0 0 24 24" fill="none" xmlns="http://www.w3.org/2000/svg">
    <path fill-rule="evenodd" clip-rule="evenodd" d="M10.5 1.75a8.75 8.75 0 1 0 5.24 15.758l4.376 4.376 1.768-1.768-4.376-4.376A8.75 8.75 0 0 0 10.5 1.75zm0 2.5a6.25 6.25 0 1 1 0 12.5 6.25 6.25 0 0 1 0-12.5z" fill="#939290"/>
    <mask id="a" mask-type="alpha" maskUnits="userSpaceOnUse" x="1" y="1" width="21" height="21">
        <path fill-rule="evenodd" clip-rule="evenodd" d="M10.5 1.75a8.75 8.75 0 1 0 5.24 15.758l4.376 4.376 1.768-1.768-4.376-4.376A8.75 8.75 0 0 0 10.5 1.75zm0 2.5a6.25 6.25 0 1 1 0 12.5 6.25 6.25 0 0 1 0-12.5z" fill="#fff"/>
    </mask>
</svg>
